<svg id="Layer_1" data-name="Layer 1" xmlns="http://www.w3.org/2000/svg" viewBox="0 0 600 600"><defs><style>.cls-1{fill:none;}.cls-2{fill:#83dcff;}</style></defs><rect class="cls-1" width="600" height="600"/><path d="M454.3,330.64c-8.88-2.53-17.93-4.46-26.87-6.75a3.56,3.56,0,0,1-2-1.85c-2.92-6.58-5.81-13.19-8.52-19.86a5,5,0,0,1,.17-3.88c6.14-10.34,12.49-20.56,18.68-30.87a12.51,12.51,0,0,0-2.06-15.3c-9.94-10-20-19.95-29.93-30-3.74-3.8-10.83-4.75-15-2.19-10.48,6.38-21.06,12.57-31.66,18.74a4.41,4.41,0,0,1-3.39.29q-9.84-4-19.53-8.37a4.36,4.36,0,0,1-2.2-2.5c-3.28-12.66-6.65-25.3-9.48-38.06-1.1-5-3.78-8.36-7.5-11.32H288.5v112c40.32-1.34,79.25,34.75,76.8,81.14-1.83,34.54-31.41,72.13-76.8,72.41V556.13H315c8.39-5.38,7.93-14.8,10.25-22.87,2.52-8.75,4.42-17.68,6.73-26.5a4.36,4.36,0,0,1,2.19-2.51c6.79-3,13.61-6,20.55-8.7,1.32-.51,3.48.17,4.87,1,9.68,5.58,19.17,11.5,28.91,17,6.2,3.49,10.76,2.81,15.75-2.08q14.61-14.3,28.93-28.91c5.41-5.53,5.54-11.31,1.4-18-5.92-9.62-11.62-19.38-17.32-29.13a3.9,3.9,0,0,1-.13-3c2.68-6.56,5.47-13.08,8.32-19.56a3.53,3.53,0,0,1,2-1.83c12.78-3.27,25.53-6.66,38.41-9.51,5-1.09,8.36-3.77,11.32-7.49V340.89C471.78,332.51,462.37,332.94,454.3,330.64Z"/><path class="cls-2" d="M122.83,408.07V43.87h124.7a17.77,17.77,0,0,1,.36,2.52c0,73.07.74,146.16-.3,219.21C246.54,339.73,196.44,401,133.85,407.22,130.28,407.57,126.7,407.78,122.83,408.07Z"/></svg>