<svg id="Layer_1" data-name="Layer 1" xmlns="http://www.w3.org/2000/svg" viewBox="0 0 1001.84 310.7"><defs><style>.cls-1{fill:#fff;}.cls-2{fill:#83dcff;}</style></defs><path class="cls-1" d="M338.3,364.72c-5.38-1.54-10.87-2.7-16.3-4.1a2.15,2.15,0,0,1-1.2-1.12c-1.77-4-3.52-8-5.17-12a3.06,3.06,0,0,1,.11-2.36c3.72-6.27,7.57-12.46,11.33-18.72a7.6,7.6,0,0,0-1.26-9.28c-6-6.09-12.13-12.1-18.15-18.2-2.27-2.3-6.56-2.88-9.11-1.32-6.35,3.87-12.77,7.62-19.2,11.36a2.69,2.69,0,0,1-2.06.18q-6-2.43-11.84-5.08a2.61,2.61,0,0,1-1.34-1.52c-2-7.67-4-15.34-5.75-23.08a11.68,11.68,0,0,0-4.54-6.87H237.74v68c24.46-.81,48.07,21.08,46.58,49.21-1.11,20.95-19.05,43.75-46.58,43.92v67.82h16.08c5.08-3.26,4.81-9,6.21-13.86,1.53-5.31,2.68-10.73,4.08-16.08a2.65,2.65,0,0,1,1.33-1.52c4.12-1.84,8.25-3.67,12.47-5.28a4,4,0,0,1,2.95.59c5.87,3.38,11.63,7,17.53,10.3,3.76,2.12,6.53,1.7,9.56-1.26q8.87-8.69,17.54-17.54c3.28-3.35,3.36-6.86.86-10.94-3.6-5.83-7.06-11.75-10.51-17.66a2.34,2.34,0,0,1-.08-1.82q2.43-6,5.05-11.86a2.12,2.12,0,0,1,1.2-1.12c7.75-2,15.49-4,23.3-5.76a11.72,11.72,0,0,0,6.87-4.55V370.93C348.91,365.85,343.2,366.12,338.3,364.72Z" transform="translate(-137.26 -190.79)"/><path class="cls-2" d="M137.26,411.68V190.79h75.63a10.24,10.24,0,0,1,.22,1.53c0,44.31.45,88.64-.18,133-.64,45-31,82.14-69,85.9C141.78,411.38,139.6,411.5,137.26,411.68Z" transform="translate(-137.26 -190.79)"/><path class="cls-2" d="M438,405.33V320.7h27.72v49.89c5.73-8.13,15-12.38,25.87-12.38,20.7,0,44.35,15.15,44.35,46.94,0,29.38-20.33,49.15-49.34,49.15C458.74,454.3,438,436,438,405.33Zm69.85.92c0-13.12-8.5-22.17-21.06-22.17s-21.07,9.05-21.07,22.17,8.5,22.18,21.07,22.18S507.89,419.38,507.89,406.25Z" transform="translate(-137.26 -190.79)"/><path class="cls-1" d="M546.69,406.25c0-27.71,20.33-48,49.15-48s49.16,20.33,49.16,48-20.33,48.05-49.16,48.05S546.69,434,546.69,406.25Zm70.22,0c0-13.12-8.5-22.17-21.07-22.17s-21.06,9.05-21.06,22.17,8.5,22.18,21.06,22.18S616.91,419.38,616.91,406.25Z" transform="translate(-137.26 -190.79)"/><path class="cls-1" d="M659.41,415.86V328.28h27.72v32.33h43.24v24.95H687.13v30.3c0,9.61,4.43,12.57,10.53,12.57s10.53-3,10.53-12.57v-2.77h27.72v2.77c0,26.06-15.52,38.44-38.25,38.44S659.41,441.92,659.41,415.86Z" transform="translate(-137.26 -190.79)"/><path class="cls-1" d="M745.52,424.18h27.35c.18,4.8,3.69,7.21,11.27,7.21,8.5,0,11.27-3,11.27-6.84,0-6.1-6.65-6.65-15.15-7.95-12.57-1.85-33.26-5-33.26-27,0-18.47,14.59-31.41,37.32-31.41s36.77,13.12,37.33,29.57h-27c-.74-4.25-4.44-6.66-10-6.66-6.84,0-9.61,3.51-9.61,7.21,0,5.54,6.65,6.28,15.15,7.58,13.12,1.84,33.27,5.36,33.27,27,0,18.84-15.53,31.41-39,31.41S745.89,441.73,745.52,424.18Z" transform="translate(-137.26 -190.79)"/><path class="cls-1" d="M835.69,436.56a17.74,17.74,0,1,1,17.74,17.74A17.3,17.3,0,0,1,835.69,436.56Z" transform="translate(-137.26 -190.79)"/><path class="cls-1" d="M887.06,407.18c0-30.68,20.69-49,48.6-49,29,0,49.33,19.77,49.33,49.15,0,31.79-23.65,46.94-44.35,46.94-10.9,0-20.14-4.25-25.86-12.38v49H887.06Zm69.85-.93c0-13.12-8.5-22.17-21.07-22.17s-21.06,9.05-21.06,22.17,8.5,22.18,21.06,22.18S956.91,419.38,956.91,406.25Z" transform="translate(-137.26 -190.79)"/><path class="cls-1" d="M999.4,400.53c0-29.38,17-42.32,39.18-42.32,12.93,0,23.83,5,30.67,14.6,6.84-9.61,17.56-14.6,30.68-14.6,22.17,0,39.17,12.94,39.17,42.32V451.9h-27.72V400.53c0-12.2-5.91-16.45-14.23-16.45-8.13,0-14,4.25-14,16.45V451.9h-27.72V400.53c0-12.2-5.91-16.45-14-16.45-8.32,0-14.23,4.25-14.23,16.45V451.9H999.4Z" transform="translate(-137.26 -190.79)"/></svg>