<?xml version="1.0" encoding="UTF-8" standalone="no"?>
<svg width="256" height="256" viewBox="0 0 256 256" fill="none" xmlns="http://www.w3.org/2000/svg">
  <!-- Square background with rounded corners -->
  <rect width="256" height="256" rx="48" fill="#1E8A4C"/>
  
  <!-- Modern Gear Icon -->
  <g transform="translate(53, 53) scale(1.25)">
    <!-- Outer gear -->
    <path d="M60 30.5l4.8-9.6c-1.5-3.4-3.4-6.6-5.6-9.5l-10.5 1.2c-1.9-1.9-4-3.6-6.3-5l-3.1-10.1C36.8-3.5 34-4 31-4s-5.8 0.5-8.3 1.5l-3.1 10.1c-2.3 1.4-4.4 3.1-6.3 5L2.8 11.4c-2.2 2.9-4.1 6.1-5.6 9.5l4.8 9.6c-0.7 2.5-1.1 5.1-1.1 7.8s0.4 5.3 1.1 7.8l-4.8 9.6c1.5 3.4 3.4 6.6 5.6 9.5l10.5-1.2c1.9 1.9 4 3.6 6.3 5l3.1 10.1c2.5 1 5.3 1.5 8.3 1.5s5.8-0.5 8.3-1.5l3.1-10.1c2.3-1.4 4.4-3.1 6.3-5l10.5 1.2c2.2-2.9 4.1-6.1 5.6-9.5l-4.8-9.6c0.7-2.5 1.1-5.1 1.1-7.8s-0.4-5.3-1.1-7.8z" fill="#25B865"/>
    
    <!-- Inner gear -->
    <circle cx="31" cy="38.7" r="18" fill="#2DCB76"/>
    
    <!-- Center hole -->
    <circle cx="31" cy="38.7" r="8" fill="#3DDC87"/>
    
    <!-- Gear teeth highlights -->
    <path d="M31 14.7c-13.3 0-24 10.7-24 24s10.7 24 24 24 24-10.7 24-24-10.7-24-24-24zm0 40c-8.8 0-16-7.2-16-16s7.2-16 16-16 16 7.2 16 16-7.2 16-16 16z" fill="#3DDC87" fill-opacity="0.6"/>
  </g>
  
  <!-- Accent Lines -->
  <path d="M128 53C85.6 53 51 87.6 51 130s34.6 77 77 77 77-34.6 77-77S170.4 53 128 53zm0 144c-37 0-67-30-67-67s30-67 67-67 67 30 67 67-30 67-67 67z" fill="#3DDC87" fill-opacity="0.3"/>
</svg>