<?xml version="1.0" encoding="UTF-8" standalone="no"?>
<svg width="512" height="128" viewBox="0 0 512 128" fill="none" xmlns="http://www.w3.org/2000/svg">
  <!-- Bot icon -->
  <g transform="translate(0, 0) scale(0.5)">
    <rect width="256" height="256" rx="48" fill="#4A6CF7"/>
    <path d="M64 80C64 71.1634 71.1634 64 80 64H176C184.837 64 192 71.1634 192 80V176C192 184.837 184.837 192 176 192H80C71.1634 192 64 184.837 64 176V80Z" fill="white"/>
    <path d="M96 112C96 103.163 103.163 96 112 96H144C152.837 96 160 103.163 160 112V144C160 152.837 152.837 160 144 160H112C103.163 160 96 152.837 96 144V112Z" fill="#4A6CF7"/>
    <circle cx="88" cy="88" r="8" fill="#4A6CF7"/>
    <circle cx="168" cy="88" r="8" fill="#4A6CF7"/>
    <circle cx="88" cy="168" r="8" fill="#4A6CF7"/>
    <circle cx="168" cy="168" r="8" fill="#4A6CF7"/>
    <path d="M112 128H144" stroke="white" stroke-width="8" stroke-linecap="round"/>
    <path d="M128 112L128 144" stroke="white" stroke-width="8" stroke-linecap="round"/>
  </g>
  
  <!-- Text "bots.pm" -->
  <g transform="translate(140, 0)">
    <!-- "b" -->
    <path d="M0 20C0 8.9543 8.9543 0 20 0H40C51.0457 0 60 8.9543 60 20V108C60 119.046 51.0457 128 40 128H20C8.9543 128 0 119.046 0 108V20Z" fill="#4A6CF7"/>
    <path d="M20 44C20 39.5817 23.5817 36 28 36H52C56.4183 36 60 39.5817 60 44V68C60 72.4183 56.4183 76 52 76H28C23.5817 76 20 72.4183 20 68V44Z" fill="white"/>
    
    <!-- "o" -->
    <path d="M80 44C80 30.7452 90.7452 20 104 20H116C129.255 20 140 30.7452 140 44V84C140 97.2548 129.255 108 116 108H104C90.7452 108 80 97.2548 80 84V44Z" fill="#4A6CF7"/>
    <path d="M100 44C100 39.5817 103.582 36 108 36H112C116.418 36 120 39.5817 120 44V84C120 88.4183 116.418 92 112 92H108C103.582 92 100 88.4183 100 84V44Z" fill="white"/>
    
    <!-- "t" -->
    <path d="M160 20C160 8.9543 168.954 0 180 0H200C211.046 0 220 8.9543 220 20V108C220 119.046 211.046 128 200 128H180C168.954 128 160 119.046 160 108V20Z" fill="#4A6CF7"/>
    <rect x="140" y="52" width="100" height="24" rx="12" fill="white"/>
    
    <!-- "s" -->
    <path d="M240 44C240 30.7452 250.745 20 264 20H276C289.255 20 300 30.7452 300 44V48C300 61.2548 289.255 72 276 72H264C250.745 72 240 61.2548 240 48V44Z" fill="#4A6CF7"/>
    <path d="M240 80C240 66.7452 250.745 56 264 56H276C289.255 56 300 66.7452 300 80V84C300 97.2548 289.255 108 276 108H264C250.745 108 240 97.2548 240 84V80Z" fill="#4A6CF7"/>
    <path d="M260 44C260 39.5817 263.582 36 268 36H272C276.418 36 280 39.5817 280 44V48C280 52.4183 276.418 56 272 56H268C263.582 56 260 52.4183 260 48V44Z" fill="white"/>
    <path d="M260 80C260 75.5817 263.582 72 268 72H272C276.418 72 280 75.5817 280 80V84C280 88.4183 276.418 92 272 92H268C263.582 92 260 88.4183 260 84V80Z" fill="white"/>
    
    <!-- "." -->
    <circle cx="320" cy="92" r="16" fill="#4A6CF7"/>
    
    <!-- "p" -->
    <path d="M340 20C340 8.9543 348.954 0 360 0H380C391.046 0 400 8.9543 400 20V108C400 119.046 391.046 128 380 128H360C348.954 128 340 119.046 340 108V20Z" fill="#4A6CF7"/>
    <path d="M340 44C340 39.5817 343.582 36 348 36H372C376.418 36 380 39.5817 380 44V68C380 72.4183 376.418 76 372 76H348C343.582 76 340 72.4183 340 68V44Z" fill="white"/>
    
    <!-- "m" -->
    <path d="M420 44C420 30.7452 430.745 20 444 20H456C469.255 20 480 30.7452 480 44V108C480 119.046 471.046 128 460 128H440C428.954 128 420 119.046 420 108V44Z" fill="#4A6CF7"/>
    <path d="M440 44C440 39.5817 443.582 36 448 36H452C456.418 36 460 39.5817 460 44V92C460 96.4183 456.418 100 452 100H448C443.582 100 440 96.4183 440 92V44Z" fill="white"/>
    <path d="M460 44C460 39.5817 463.582 36 468 36H472C476.418 36 480 39.5817 480 44V92C480 96.4183 476.418 100 472 100H468C463.582 100 460 96.4183 460 92V44Z" fill="white"/>
  </g>
</svg>