<?xml version="1.0" encoding="UTF-8" standalone="no"?>
<svg width="512" height="128" viewBox="0 0 512 128" fill="none" xmlns="http://www.w3.org/2000/svg">
  <!-- Gear icon -->
  <g transform="translate(20, 14) scale(0.8)">
    <!-- Outer gear -->
    <path d="M50 0C47.35 0 44.69 0.22 42.09 0.63L40.94 10.63C38.11 11.15 35.31 11.97 32.66 13.06L25.72 5.94C20.93 8.31 16.59 11.44 12.84 15.19L19.97 22.13C18.88 24.78 18.06 27.58 17.53 30.41L7.53 31.56C7.12 34.16 6.9 36.82 6.9 39.47C6.9 42.12 7.12 44.78 7.53 47.38L17.53 48.53C18.06 51.36 18.88 54.16 19.97 56.81L12.84 63.75C16.59 67.5 20.93 70.63 25.72 73L32.66 65.88C35.31 66.97 38.11 67.79 40.94 68.31L42.09 78.31C44.69 78.72 47.35 78.94 50 78.94C52.65 78.94 55.31 78.72 57.91 78.31L59.06 68.31C61.89 67.79 64.69 66.97 67.34 65.88L74.28 73C79.07 70.63 83.41 67.5 87.16 63.75L80.03 56.81C81.12 54.16 81.94 51.36 82.47 48.53L92.47 47.38C92.88 44.78 93.1 42.12 93.1 39.47C93.1 36.82 92.88 34.16 92.47 31.56L82.47 30.41C81.94 27.58 81.12 24.78 80.03 22.13L87.16 15.19C83.41 11.44 79.07 8.31 74.28 5.94L67.34 13.06C64.69 11.97 61.89 11.15 59.06 10.63L57.91 0.63C55.31 0.22 52.65 0 50 0zM50 25C58.28 25 65 31.72 65 40C65 48.28 58.28 55 50 55C41.72 55 35 48.28 35 40C35 31.72 41.72 25 50 25z" fill="#1E8A4C"/>
    
    <!-- Inner gear -->
    <circle cx="50" cy="40" r="15" fill="#25B865"/>
    
    <!-- Gear teeth highlights -->
    <path d="M50 5C47.76 5 45.52 5.18 43.33 5.53L42.38 13.78C39.96 14.22 37.58 14.91 35.31 15.84L29.44 9.81C25.31 11.87 21.59 14.59 18.34 17.84L24.38 23.72C23.44 25.99 22.75 28.37 22.31 30.78L14.06 31.73C13.71 33.92 13.53 36.16 13.53 38.4C13.53 40.64 13.71 42.88 14.06 45.07L22.31 46.02C22.75 48.43 23.44 50.81 24.38 53.08L18.34 58.96C21.59 62.21 25.31 64.93 29.44 66.99L35.31 60.96C37.58 61.89 39.96 62.58 42.38 63.02L43.33 71.27C45.52 71.62 47.76 71.8 50 71.8C52.24 71.8 54.48 71.62 56.67 71.27L57.62 63.02C60.04 62.58 62.42 61.89 64.69 60.96L70.56 66.99C74.69 64.93 78.41 62.21 81.66 58.96L75.62 53.08C76.56 50.81 77.25 48.43 77.69 46.02L85.94 45.07C86.29 42.88 86.47 40.64 86.47 38.4C86.47 36.16 86.29 33.92 85.94 31.73L77.69 30.78C77.25 28.37 76.56 25.99 75.62 23.72L81.66 17.84C78.41 14.59 74.69 11.87 70.56 9.81L64.69 15.84C62.42 14.91 60.04 14.22 57.62 13.78L56.67 5.53C54.48 5.18 52.24 5 50 5zM50 30C55.52 30 60 34.48 60 40C60 45.52 55.52 50 50 50C44.48 50 40 45.52 40 40C40 34.48 44.48 30 50 30z" fill="#2DCB76"/>
  </g>
  
  <!-- Text "bots.pm" -->
  <g transform="translate(140, 0)">
    <!-- "b" -->
    <path d="M0 20C0 8.9543 8.9543 0 20 0H40C51.0457 0 60 8.9543 60 20V108C60 119.046 51.0457 128 40 128H20C8.9543 128 0 119.046 0 108V20Z" fill="#1E8A4C"/>
    <path d="M20 44C20 39.5817 23.5817 36 28 36H52C56.4183 36 60 39.5817 60 44V68C60 72.4183 56.4183 76 52 76H28C23.5817 76 20 72.4183 20 68V44Z" fill="#25B865"/>
    
    <!-- "o" -->
    <path d="M80 44C80 30.7452 90.7452 20 104 20H116C129.255 20 140 30.7452 140 44V84C140 97.2548 129.255 108 116 108H104C90.7452 108 80 97.2548 80 84V44Z" fill="#1E8A4C"/>
    <path d="M100 44C100 39.5817 103.582 36 108 36H112C116.418 36 120 39.5817 120 44V84C120 88.4183 116.418 92 112 92H108C103.582 92 100 88.4183 100 84V44Z" fill="#25B865"/>
    
    <!-- "t" -->
    <path d="M160 20C160 8.9543 168.954 0 180 0H200C211.046 0 220 8.9543 220 20V108C220 119.046 211.046 128 200 128H180C168.954 128 160 119.046 160 108V20Z" fill="#1E8A4C"/>
    <rect x="140" y="52" width="100" height="24" rx="12" fill="#25B865"/>
    
    <!-- "s" -->
    <path d="M240 44C240 30.7452 250.745 20 264 20H276C289.255 20 300 30.7452 300 44V48C300 61.2548 289.255 72 276 72H264C250.745 72 240 61.2548 240 48V44Z" fill="#1E8A4C"/>
    <path d="M240 80C240 66.7452 250.745 56 264 56H276C289.255 56 300 66.7452 300 80V84C300 97.2548 289.255 108 276 108H264C250.745 108 240 97.2548 240 84V80Z" fill="#1E8A4C"/>
    <path d="M260 44C260 39.5817 263.582 36 268 36H272C276.418 36 280 39.5817 280 44V48C280 52.4183 276.418 56 272 56H268C263.582 56 260 52.4183 260 48V44Z" fill="#25B865"/>
    <path d="M260 80C260 75.5817 263.582 72 268 72H272C276.418 72 280 75.5817 280 80V84C280 88.4183 276.418 92 272 92H268C263.582 92 260 88.4183 260 84V80Z" fill="#25B865"/>
    
    <!-- "." -->
    <circle cx="320" cy="92" r="16" fill="#1E8A4C"/>
    
    <!-- "p" -->
    <path d="M340 20C340 8.9543 348.954 0 360 0H380C391.046 0 400 8.9543 400 20V108C400 119.046 391.046 128 380 128H360C348.954 128 340 119.046 340 108V20Z" fill="#1E8A4C"/>
    <path d="M340 44C340 39.5817 343.582 36 348 36H372C376.418 36 380 39.5817 380 44V68C380 72.4183 376.418 76 372 76H348C343.582 76 340 72.4183 340 68V44Z" fill="#25B865"/>
    
    <!-- "m" -->
    <path d="M420 44C420 30.7452 430.745 20 444 20H456C469.255 20 480 30.7452 480 44V108C480 119.046 471.046 128 460 128H440C428.954 128 420 119.046 420 108V44Z" fill="#1E8A4C"/>
    <path d="M440 44C440 39.5817 443.582 36 448 36H452C456.418 36 460 39.5817 460 44V92C460 96.4183 456.418 100 452 100H448C443.582 100 440 96.4183 440 92V44Z" fill="#25B865"/>
    <path d="M460 44C460 39.5817 463.582 36 468 36H472C476.418 36 480 39.5817 480 44V92C480 96.4183 476.418 100 472 100H468C463.582 100 460 96.4183 460 92V44Z" fill="#25B865"/>
  </g>
</svg>